Normalized EMG Linear Envelopes
nRows=38
nColumns=17

endheader
time	        VM	        VL	        RF	       GRA	        TA	   ADDLONG	   SEMIMEM	      BFLH	        GM	        GL	       TFL	   GLUTMAX	   GLUTMED	      PIRI	    OBTINT	        QF	
2.964	  0.017696	  0.005731	  0.034902	  0.212863	  0.188989	  0.063869	  0.089360	  0.076216	  0.207756	  0.092395	  0.045044	  0.031884	  0.093622	  0.436659	  0.297859	  0.088703	
2.9645	  0.017436	  0.005478	  0.033454	  0.213252	  0.187362	  0.063239	  0.091527	  0.076766	  0.206824	  0.091578	  0.044002	  0.030950	  0.093040	  0.432060	  0.297665	  0.089311	
2.965	  0.017180	  0.005230	  0.032040	  0.213681	  0.185757	  0.062620	  0.093739	  0.077350	  0.205876	  0.090751	  0.042979	  0.030028	  0.092465	  0.427459	  0.297476	  0.089953	
2.9655	  0.016927	  0.004987	  0.030657	  0.214148	  0.184173	  0.062012	  0.095997	  0.077968	  0.204911	  0.089915	  0.041976	  0.029118	  0.091895	  0.422859	  0.297292	  0.090630	
2.966	  0.016677	  0.004749	  0.029306	  0.214652	  0.182612	  0.061415	  0.098301	  0.078622	  0.203930	  0.089071	  0.040992	  0.028220	  0.091330	  0.418262	  0.297117	  0.091343	
2.9665	  0.016430	  0.004516	  0.027986	  0.215193	  0.181073	  0.060829	  0.100650	  0.079312	  0.202934	  0.088219	  0.040028	  0.027335	  0.090771	  0.413669	  0.296951	  0.092090	
2.967	  0.016187	  0.004287	  0.026698	  0.215771	  0.179556	  0.060254	  0.103046	  0.080038	  0.201925	  0.087361	  0.039082	  0.026462	  0.090216	  0.409081	  0.296796	  0.092874	
2.9675	  0.015947	  0.004063	  0.025440	  0.216385	  0.178063	  0.059690	  0.105487	  0.080801	  0.200903	  0.086495	  0.038155	  0.025602	  0.089667	  0.404501	  0.296654	  0.093695	
2.968	  0.015709	  0.003843	  0.024213	  0.217035	  0.176593	  0.059138	  0.107974	  0.081601	  0.199868	  0.085624	  0.037247	  0.024755	  0.089122	  0.399929	  0.296527	  0.094553	
2.9685	  0.015475	  0.003628	  0.023016	  0.217720	  0.175146	  0.058597	  0.110507	  0.082439	  0.198823	  0.084748	  0.036357	  0.023921	  0.088581	  0.395368	  0.296417	  0.095449	
2.969	  0.015244	  0.003417	  0.021848	  0.218439	  0.173723	  0.058067	  0.113086	  0.083315	  0.197767	  0.083867	  0.035485	  0.023100	  0.088045	  0.390819	  0.296324	  0.096383	
2.9695	  0.015015	  0.003211	  0.020710	  0.219193	  0.172325	  0.057548	  0.115711	  0.084229	  0.196702	  0.082981	  0.034631	  0.022292	  0.087512	  0.386284	  0.296250	  0.097356	
2.97	  0.014790	  0.003008	  0.019600	  0.219981	  0.170950	  0.057041	  0.118382	  0.085182	  0.195628	  0.082093	  0.033794	  0.021498	  0.086983	  0.381764	  0.296198	  0.098368	
2.9705	  0.014567	  0.002810	  0.018520	  0.220803	  0.169600	  0.056544	  0.121098	  0.086175	  0.194547	  0.081201	  0.032975	  0.020717	  0.086457	  0.377261	  0.296168	  0.099420	
2.971	  0.014347	  0.002615	  0.017467	  0.221659	  0.168274	  0.056059	  0.123860	  0.087207	  0.193460	  0.080306	  0.032173	  0.019949	  0.085934	  0.372777	  0.296161	  0.100512	
2.9715	  0.014130	  0.002424	  0.016443	  0.222547	  0.166973	  0.055584	  0.126668	  0.088279	  0.192366	  0.079410	  0.031387	  0.019195	  0.085414	  0.368313	  0.296180	  0.101645	
2.972	  0.013916	  0.002237	  0.015445	  0.223469	  0.165697	  0.055121	  0.129520	  0.089392	  0.191267	  0.078512	  0.030618	  0.018455	  0.084896	  0.363871	  0.296226	  0.102819	
2.9725	  0.013704	  0.002054	  0.014475	  0.224422	  0.164445	  0.054668	  0.132418	  0.090547	  0.190164	  0.077612	  0.029865	  0.017729	  0.084380	  0.359452	  0.296299	  0.104034	
2.973	  0.013495	  0.001874	  0.013532	  0.225409	  0.163217	  0.054226	  0.135361	  0.091743	  0.189057	  0.076712	  0.029129	  0.017017	  0.083866	  0.355057	  0.296400	  0.105290	
2.9735	  0.013289	  0.001697	  0.012615	  0.226427	  0.162015	  0.053795	  0.138348	  0.092982	  0.187948	  0.075811	  0.028407	  0.016319	  0.083353	  0.350689	  0.296532	  0.106589	
2.974	  0.013084	  0.001524	  0.011724	  0.227477	  0.160836	  0.053374	  0.141380	  0.094263	  0.186838	  0.074911	  0.027702	  0.015635	  0.082840	  0.346347	  0.296694	  0.107930	
2.9745	  0.012883	  0.001355	  0.010858	  0.228559	  0.159682	  0.052964	  0.144456	  0.095587	  0.185728	  0.074010	  0.027011	  0.014966	  0.082329	  0.342035	  0.296889	  0.109314	
2.975	  0.012684	  0.001188	  0.010018	  0.229673	  0.158553	  0.052565	  0.147576	  0.096956	  0.184618	  0.073111	  0.026335	  0.014311	  0.081818	  0.337752	  0.297116	  0.110740	
2.9755	  0.012487	  0.001025	  0.009202	  0.230818	  0.157449	  0.052177	  0.150740	  0.098368	  0.183510	  0.072212	  0.025675	  0.013671	  0.081306	  0.333501	  0.297376	  0.112210	
2.976	  0.012292	  0.000865	  0.008411	  0.231995	  0.156369	  0.051799	  0.153947	  0.099825	  0.182404	  0.071315	  0.025028	  0.013046	  0.080795	  0.329282	  0.297670	  0.113723	
2.9765	  0.012099	  0.000708	  0.007644	  0.233202	  0.155313	  0.051431	  0.157197	  0.101327	  0.181302	  0.070419	  0.024396	  0.012436	  0.080282	  0.325096	  0.297999	  0.115279	
2.977	  0.011909	  0.000554	  0.006900	  0.234440	  0.154282	  0.051073	  0.160491	  0.102874	  0.180204	  0.069526	  0.023777	  0.011841	  0.079769	  0.320944	  0.298364	  0.116880	
2.9775	  0.011721	  0.000402	  0.006180	  0.235709	  0.153275	  0.050726	  0.163826	  0.104468	  0.179110	  0.068634	  0.023173	  0.011261	  0.079254	  0.316828	  0.298764	  0.118523	
2.978	  0.011535	  0.000254	  0.005483	  0.237008	  0.152293	  0.050389	  0.167204	  0.106108	  0.178023	  0.067745	  0.022582	  0.010697	  0.078737	  0.312747	  0.299202	  0.120211	
2.9785	  0.011350	  0.000108	  0.004808	  0.238338	  0.151335	  0.050061	  0.170624	  0.107796	  0.176942	  0.066859	  0.022004	  0.010148	  0.078219	  0.308704	  0.299677	  0.121943	
2.979	  0.011168	  0.000000	  0.004155	  0.239697	  0.150401	  0.049744	  0.174084	  0.109531	  0.175868	  0.065977	  0.021439	  0.009616	  0.077698	  0.304699	  0.300190	  0.123719	
2.9795	  0.010987	  0.000000	  0.003524	  0.241087	  0.149491	  0.049436	  0.177586	  0.111314	  0.174803	  0.065097	  0.020887	  0.009099	  0.077174	  0.300732	  0.300742	  0.125538	
2.98	  0.010808	  0.000000	  0.002914	  0.242506	  0.148606	  0.049137	  0.181128	  0.113145	  0.173746	  0.064221	  0.020347	  0.008599	  0.076648	  0.296805	  0.301332	  0.127402	
2.9805	  0.010631	  0.000000	  0.002326	  0.243955	  0.147745	  0.048847	  0.184709	  0.115025	  0.172698	  0.063349	  0.019821	  0.008116	  0.076119	  0.292917	  0.301962	  0.129309	
2.981	  0.010456	  0.000000	  0.001758	  0.245433	  0.146907	  0.048567	  0.188330	  0.116954	  0.171661	  0.062481	  0.019306	  0.007648	  0.075587	  0.289069	  0.302632	  0.131260	
2.9815	  0.010282	  0.000000	  0.001210	  0.246940	  0.146093	  0.048295	  0.191989	  0.118933	  0.170634	  0.061618	  0.018804	  0.007198	  0.075052	  0.285262	  0.303341	  0.133255	
2.982	  0.010109	  0.000000	  0.000682	  0.248476	  0.145303	  0.048032	  0.195686	  0.120962	  0.169619	  0.060759	  0.018313	  0.006765	  0.074515	  0.281496	  0.304091	  0.135293	
2.9825	  0.009938	  0.000000	  0.000173	  0.250040	  0.144537	  0.047778	  0.199419	  0.123041	  0.168617	  0.059904	  0.017835	  0.006349	  0.073974	  0.277772	  0.304881	  0.137374	
